<svg width="51" height="57" viewBox="0 0 51 57" fill="none" xmlns="http://www.w3.org/2000/svg">
<path d="M50.9106 32.1077C50.9106 30.1433 49.3145 28.5538 47.342 28.5538H43.7734V25C43.7734 16.4196 37.6352 9.24151 29.499 7.59039V3.67689C29.499 1.71256 27.9029 0.123047 25.9304 0.123047C23.9579 0.123047 22.3618 1.71256 22.3618 3.67689V7.59039C14.2256 9.24151 8.0874 16.4196 8.0874 25V28.5538H4.5188C2.54631 28.5538 0.950195 30.1433 0.950195 32.1077C0.950195 34.072 2.54631 35.6615 4.5188 35.6615H47.342C49.3145 35.6615 50.9106 34.072 50.9106 32.1077ZM40.2048 49.8769H11.656C9.68351 49.8769 8.0874 51.4664 8.0874 53.4307C8.0874 55.3951 9.68351 56.9846 11.656 56.9846H40.2048C42.1773 56.9846 43.7734 55.3951 43.7734 53.4307C43.7734 51.4664 42.1773 49.8769 40.2048 49.8769Z" fill="white"/>
</svg>
