<svg width="154" height="192" viewBox="0 0 154 192" fill="none" xmlns="http://www.w3.org/2000/svg">
<g filter="url(#filter0_dd_77_915)">
<path d="M43.3174 130.826L43.3136 130.825C42.4639 130.473 41.9062 129.64 41.9062 128.717V23.2812C41.9062 22.0199 42.9261 21 44.1875 21H109.812C111.074 21 112.094 22.0198 112.094 23.2812C112.094 23.2813 112.094 23.2813 112.094 23.2814V128.718C112.094 129.64 111.536 130.473 110.687 130.825L110.681 130.827C109.859 131.173 108.864 130.995 108.2 130.33C105.466 127.597 101.034 127.597 98.3005 130.33C97.4093 131.222 95.9659 131.222 95.0748 130.33C92.3412 127.597 87.909 127.597 85.1755 130.33C84.2843 131.222 82.8409 131.222 81.9498 130.33C79.2162 127.597 74.784 127.597 72.0505 130.33C71.1593 131.222 69.7159 131.222 68.8248 130.33C66.0912 127.597 61.659 127.597 58.9255 130.33C58.0343 131.222 56.5909 131.222 55.6998 130.33C52.9663 127.597 48.5341 127.597 45.8005 130.33C45.1438 130.987 44.1589 131.178 43.3174 130.826Z" fill="url(#paint0_linear_77_915)" stroke="url(#paint1_linear_77_915)" stroke-width="2"/>
<path d="M77 55.3027C75.1927 55.3027 73.7187 53.8319 73.7187 52.0215C73.7187 50.2111 75.1927 48.7402 77 48.7402C78.8073 48.7402 80.2812 50.2111 80.2812 52.0215C80.2812 53.8351 81.7488 55.3027 83.5625 55.3027C85.3762 55.3027 86.8437 53.8351 86.8437 52.0215C86.8437 47.7493 84.0927 44.1412 80.2812 42.7821V38.8965C80.2812 37.0828 78.8137 35.6152 77 35.6152C75.1863 35.6152 73.7187 37.0828 73.7187 38.8965V42.7821C69.9072 44.1412 67.1562 47.7493 67.1562 52.0215C67.1562 57.4495 71.5719 61.8652 77 61.8652C78.8073 61.8652 80.2812 63.3361 80.2812 65.1465C80.2812 66.9569 78.8073 68.4277 77 68.4277C75.1927 68.4277 73.7187 66.9569 73.7187 65.1465C73.7187 63.3328 72.2512 61.8652 70.4375 61.8652C68.6238 61.8652 67.1562 63.3328 67.1562 65.1465C67.1562 69.4187 69.9072 73.0267 73.7187 74.3858V78.2715C73.7187 80.0851 75.1863 81.5527 77 81.5527C78.8137 81.5527 80.2812 80.0851 80.2812 78.2715V74.3858C84.0927 73.027 86.8437 69.4187 86.8437 65.1465C86.8437 59.7184 82.4283 55.3027 77 55.3027ZM77 88.1152H57.3125C55.4988 88.1152 54.0312 89.5828 54.0312 91.3965C54.0312 93.2101 55.4988 94.6777 57.3125 94.6777H77C78.8137 94.6777 80.2812 93.2101 80.2812 91.3965C80.2812 89.5828 78.8137 88.1152 77 88.1152ZM77 101.24H57.3125C55.4988 101.24 54.0312 102.708 54.0312 104.521C54.0312 106.335 55.4988 107.803 57.3125 107.803H77C78.8137 107.803 80.2812 106.335 80.2812 104.521C80.2812 102.708 78.8137 101.24 77 101.24ZM90.125 94.6777H96.6875C98.5012 94.6777 99.9687 93.2101 99.9687 91.3965C99.9687 89.5828 98.5012 88.1152 96.6875 88.1152H90.125C88.3113 88.1152 86.8437 89.5828 86.8437 91.3965C86.8437 93.2101 88.3113 94.6777 90.125 94.6777ZM96.6875 101.24H90.125C88.3113 101.24 86.8437 102.708 86.8437 104.521C86.8437 106.335 88.3113 107.803 90.125 107.803H96.6875C98.5012 107.803 99.9687 106.335 99.9687 104.521C99.9687 102.708 98.5012 101.24 96.6875 101.24Z" fill="white"/>
</g>
<defs>
<filter id="filter0_dd_77_915" x="0.90625" y="0" width="152.188" height="192" filterUnits="userSpaceOnUse" color-interpolation-filters="sRGB">
<feFlood flood-opacity="0" result="BackgroundImageFix"/>
<feColorMatrix in="SourceAlpha" type="matrix" values="0 0 0 0 0 0 0 0 0 0 0 0 0 0 0 0 0 0 127 0" result="hardAlpha"/>
<feOffset dy="20"/>
<feGaussianBlur stdDeviation="20"/>
<feColorMatrix type="matrix" values="0 0 0 0 1 0 0 0 0 0.680498 0 0 0 0 0 0 0 0 0.29 0"/>
<feBlend mode="normal" in2="BackgroundImageFix" result="effect1_dropShadow_77_915"/>
<feColorMatrix in="SourceAlpha" type="matrix" values="0 0 0 0 0 0 0 0 0 0 0 0 0 0 0 0 0 0 127 0" result="hardAlpha"/>
<feOffset dy="5"/>
<feGaussianBlur stdDeviation="5"/>
<feColorMatrix type="matrix" values="0 0 0 0 1 0 0 0 0 0.680498 0 0 0 0 0 0 0 0 0.26 0"/>
<feBlend mode="normal" in2="effect1_dropShadow_77_915" result="effect2_dropShadow_77_915"/>
<feBlend mode="normal" in="SourceGraphic" in2="effect2_dropShadow_77_915" result="shape"/>
</filter>
<linearGradient id="paint0_linear_77_915" x1="77.0001" y1="-22.8026" x2="77.0001" y2="169.452" gradientUnits="userSpaceOnUse">
<stop offset="0.630208" stop-color="#FFAE00"/>
<stop offset="1" stop-color="#FFCD1E"/>
</linearGradient>
<linearGradient id="paint1_linear_77_915" x1="77.0001" y1="20" x2="77.0001" y2="132" gradientUnits="userSpaceOnUse">
<stop stop-color="#FF9F00"/>
<stop offset="1" stop-color="#FFB800"/>
</linearGradient>
</defs>
</svg>
